<?xml version="1.0" encoding="utf-8"?>
<!-- Generator: Adobe Illustrator 27.3.1, SVG Export Plug-In . SVG Version: 6.00 Build 0)  -->
<svg version="1.1" id="katman_1" xmlns="http://www.w3.org/2000/svg" xmlns:xlink="http://www.w3.org/1999/xlink" x="0px" y="0px"
	 viewBox="0 0 100 100" style="enable-background:new 0 0 100 100;" xml:space="preserve">
<style type="text/css">
	.st0{clip-path:url(#SVGID_00000173123220244908169710000009284458162395663279_);}
	.st1{fill:#010202;}
	.st2{fill:#A21C5D;}
</style>
<g>
	<g>
		<defs>
			<rect id="SVGID_1_" x="5.5" y="21" width="89" height="70.6"/>
		</defs>
		<clipPath id="SVGID_00000095298737601918988750000016933900722666390965_">
			<use xlink:href="#SVGID_1_"  style="overflow:visible;"/>
		</clipPath>
		<g style="clip-path:url(#SVGID_00000095298737601918988750000016933900722666390965_);">
			<g>
				<polygon class="st1" points="38.5,34.9 38.5,34.9 38.6,35 				"/>
				<path class="st1" d="M99.9,157.4c1-3.8,2.6-7.2,1.8-11.2c-1.2-6,3.6-4.7,2.2-26.4c-0.4-6.8-0.5-13.7-2-20.4
					c-1.3-6.2-0.8-2.9-1.9-10.4c-1-7.7-1.8-16.7-3.9-24c-4.3-15.2,1.1-10-15.3-16.8c-2.4-0.9-17.6-6.4-18.2-7.7
					c-0.2-0.5-0.4-1.4-0.4-2.3c0,0.2,0,0.4,0,0.6c-1.2,0.2-4.6,2.9-7.6,5.4c-1.9,1.6-3.6,3-4.6,3.7l-11.2-9.4
					c-0.5-0.9-0.3-2.5-0.4-3.6l-1-0.1l-0.7,4.2c-3.3,1.2,1.1,2.4-6.2,5.8c-2.3,1-15.3,6.7-17.1,7c-7.8,1.4-7,5-7.8,7.9
					c-0.9,3-1.4,6.1-2.7,8.9c-0.7,1.6-0.4,4.2-1.4,7.8c-1,3.7,0,6.9-1.6,14.5c-1.7,7.7-0.4,12.7-1,15.4c-1,4.8-0.3,10.6-0.6,11.1
					c-0.2,0.3-0.3,0.7-0.3,1v0.7c0.2,1.8,1.7,3.6,0.6,5.1c-0.8,1.2,0.9,3.7,0.8,5.6c-0.3,7.6,3.7,14.6,3.5,17.2
					c-0.5,7.8,0.6,6.2,0.3,10.9c-0.3,4.7-2.3,4.7-0.6,10.8c1,3.4,2.2,7.2,2.5,10.7c0.3,3.1-0.6,4.4,5.5,7c1.1,0.4,1.9,0.8,3.1,1
					c0,0-0.1,0.1,0.3-0.1l1-0.3c0.5,2.7,0.3,5.1,0.9,7.9c0.9,4.8,0.5,4.3,1,7.8l1.6,8.7c1.7,11.7,1.5,11.7,2.5,23.2
					c0.9,10.3,2.5,19.2,2.5,29.7c0,4.1-0.2,8.2,0.1,12.3c0.6,8-0.2,3.9-1.5,9.9c-0.3,1.6-1,6.8,1,7.5l1.9,0.9
					c-0.6,1.6-1.6,1.4-1.3,7.2c0.1,1.3,0.8,2.3,1,3.5c-3.4,1.4-12.7,16-10.5,19.8c3.7,6.1,20.4,4.3,20.7-5.4c0.1-3.3,0.4-5.1,4-4.8
					c9.1-8.1,1.9-7.6,4.8-12.4c2.1-3.6-2.9-6.4-2.7-8.6c0.1-1.9,3.2-8,3.5-23.4c0.2-13.2,2.9-49.6,5.3-61.3c1-4.8,1.8-10.5,4.1-14.9
					c0.2,0.4,0.4,0.9,0.6,1.3c2,4.3,2.2,8.2,3.2,13.9c1.8,9.9,1.6,20,2.5,30c0.4,4.4,0.1,9,0.7,13.4l5,22.9
					c2.2,8.5,3.3,7.5,3.1,16.7c-0.1,4.2,1.2,8.1,1.2,12.3c0.1,10.1,2.7,3.7,2.8,11c0.1,4.4-0.8,2.4,0.4,7.3c1,4.1-7.4,20.5,5.2,21.1
					c9.6,0.4,14.1-2.7,14.1-12.5c0-1.7-1.2-2.4-1.7-6.4c-0.3-2.8-2.9-7.5-2-11c1.5-5.6,0.7-3.6,4.5-7.8c3.5-4,0.4-7.9,0.5-14.7
					c0-5.6,0.4-11.4-0.4-16.9c-1.3-8.8-0.4-6.2-0.9-12.3c-1.6-19.2-4.9-23.2-1.2-43.4c1.8-10.2,0.7-26,1.2-37.1
					c0.1-3.1,1.9-4,4.6-10c2.5-5.7,7-11,3.1-14.3L99.9,157.4z M54.7,143l-4,3.5l-8.5-8.2c1.2-16.5,2.5-33.1,2.5-49.7
					c0-6.6-1-22.4,1.7-28.2c1.1-2.4,2.7-5.2,0.7-7.6l-0.7-1.3c-1.4,0.3,2.3-4,4.9-3.2l3.5,2.7l0.3,0.2l-0.3,0.4
					c-1.7,2.6-2.2,3.2-1.5,6.7c0.3,1.5,0.9,2.6,1.5,3.8c1.4,2.8,3.1,5.8,3.1,14.2c-0.1,18.7-0.3,37.5,0.8,56.2l0.3,6.8L54.7,143z"/>
			</g>
		</g>
	</g>
	<polygon class="st1" points="5.5,5.2 5.5,43.5 20,43.5 20,19.8 42.7,19.8 42.7,26.8 57.2,26.8 57.2,19.8 79.9,19.8 79.9,43.5 
		94.5,43.5 94.5,5.2 	"/>
	<polygon class="st2" points="79.9,81.1 20,81.1 20,57.3 5.5,57.3 5.5,95.7 94.5,95.7 94.5,57.3 79.9,57.3 	"/>
</g>
</svg>
