<?xml version="1.0" encoding="utf-8"?>
<!-- Generator: Adobe Illustrator 27.3.1, SVG Export Plug-In . SVG Version: 6.00 Build 0)  -->
<svg version="1.1" id="katman_1" xmlns="http://www.w3.org/2000/svg" xmlns:xlink="http://www.w3.org/1999/xlink" x="0px" y="0px"
	 viewBox="0 0 202.1 68.4" style="enable-background:new 0 0 202.1 68.4;" xml:space="preserve">
<style type="text/css">
	.st0{fill:#010202;}
	.st1{fill:#A21C5D;}
	.st2{fill:#A5A7A9;}
</style>
<g>
	<g>
		<g>
			<polygon class="st0" points="190.6,12.9 190.6,12.9 190.6,12.9 			"/>
			<path class="st0" d="M201.4,34.1c0.2-0.7,0.4-1.2,0.3-1.9c-0.2-1,0.6-0.8,0.4-4.6c-0.1-1.2-0.1-2.4-0.3-3.5
				c-0.2-1.1-0.1-0.5-0.3-1.8c-0.2-1.3-0.3-2.9-0.7-4.2c-0.8-2.6,0.2-1.7-2.7-2.9c-0.4-0.2-3.1-1.1-3.2-1.3c0-0.1-0.1-0.2-0.1-0.4
				c0,0,0,0.1,0,0.1c-0.2,0-0.8,0.5-1.3,0.9c-0.3,0.3-0.6,0.5-0.8,0.6l-2-1.6c-0.1-0.2-0.1-0.4-0.1-0.6l-0.2,0l-0.1,0.7
				c-0.6,0.2,0.2,0.4-1.1,1c-0.4,0.2-2.7,1.2-3,1.2c-1.4,0.2-1.2,0.9-1.4,1.4c-0.2,0.5-0.2,1-0.5,1.5c-0.1,0.3-0.1,0.7-0.3,1.3
				c-0.2,0.6,0,1.2-0.3,2.5c-0.3,1.3-0.1,2.2-0.2,2.7c-0.2,0.8-0.1,1.8-0.1,1.9c0,0.1,0,0.1-0.1,0.2v0.1c0,0.3,0.3,0.6,0.1,0.9
				c-0.1,0.2,0.2,0.7,0.1,1c-0.1,1.3,0.6,2.5,0.6,3c-0.1,1.4,0.1,1.1,0.1,1.9c-0.1,0.8-0.4,0.8-0.1,1.9c0.2,0.6,0.4,1.3,0.4,1.9
				c0,0.5-0.1,0.8,1,1.2c0.2,0.1,0.3,0.1,0.5,0.2c0,0,0,0,0.1,0l0.2-0.1c0.1,0.5,0.1,0.9,0.2,1.4c0.2,0.8,0.1,0.7,0.2,1.4l0.3,1.5
				c0.3,2,0.3,2,0.4,4c0.2,1.8,0.4,3.3,0.4,5.2c0,0.7,0,1.4,0,2.1c0.1,1.4,0,0.7-0.3,1.7c-0.1,0.3-0.2,1.2,0.2,1.3l0.3,0.1
				c-0.1,0.3-0.3,0.2-0.2,1.3c0,0.2,0.1,0.4,0.2,0.6c-0.6,0.2-2.2,2.8-1.8,3.4c0.6,1.1,3.6,0.7,3.6-0.9c0-0.6,0.1-0.9,0.7-0.8
				c1.6-1.4,0.3-1.3,0.8-2.2c0.4-0.6-0.5-1.1-0.5-1.5c0-0.3,0.6-1.4,0.6-4.1c0-2.3,0.5-8.6,0.9-10.6c0.2-0.8,0.3-1.8,0.7-2.6
				c0,0.1,0.1,0.2,0.1,0.2c0.3,0.7,0.4,1.4,0.6,2.4c0.3,1.7,0.3,3.5,0.4,5.2c0.1,0.8,0,1.6,0.1,2.3l0.9,4c0.4,1.5,0.6,1.3,0.5,2.9
				c0,0.7,0.2,1.4,0.2,2.1c0,1.7,0.5,0.6,0.5,1.9c0,0.8-0.1,0.4,0.1,1.3c0.2,0.7-1.3,3.6,0.9,3.7c1.7,0.1,2.5-0.5,2.5-2.2
				c0-0.3-0.2-0.4-0.3-1.1c-0.1-0.5-0.5-1.3-0.3-1.9c0.3-1,0.1-0.6,0.8-1.4c0.6-0.7,0.1-1.4,0.1-2.5c0-1,0.1-2-0.1-2.9
				c-0.2-1.5-0.1-1.1-0.2-2.1c-0.3-3.3-0.9-4-0.2-7.5c0.3-1.8,0.1-4.5,0.2-6.4c0-0.5,0.3-0.7,0.8-1.7c0.4-1,1.2-1.9,0.6-2.5
				L201.4,34.1z M193.5,31.6l-0.7,0.6l-1.5-1.4c0.2-2.9,0.4-5.7,0.4-8.6c0-1.1-0.2-3.9,0.3-4.9c0.2-0.4,0.5-0.9,0.1-1.3l-0.1-0.2
				c-0.2,0,0.4-0.7,0.9-0.5l0.6,0.5l0,0l0,0.1c-0.3,0.5-0.4,0.6-0.3,1.2c0.1,0.3,0.2,0.5,0.3,0.7c0.2,0.5,0.5,1,0.5,2.5
				c0,3.2-0.1,6.5,0.1,9.7l0,1.2L193.5,31.6z"/>
		</g>
	</g>
	<polygon class="st0" points="185.2,0 185.2,6.6 187.7,6.6 187.7,2.5 191.6,2.5 191.6,3.7 194.1,3.7 194.1,2.5 197.9,2.5 197.9,6.6 
		200.4,6.6 200.4,0 	"/>
	<polygon class="st1" points="197.9,11.5 187.7,11.5 187.7,7.4 185.2,7.4 185.2,14 200.4,14 200.4,7.4 197.9,7.4 	"/>
	<g>
		<path class="st0" d="M3.9,30.2c0,1.1-0.4,2-1.2,2.8C2,33.8,1.1,34.2,0,34.2v-9.4c0-2.6,0.9-4.8,2.8-6.6c1.9-1.8,4.1-2.7,6.7-2.7
			h5.5c0,1-0.4,1.9-1.1,2.6c-0.7,0.7-1.6,1.1-2.6,1.1H9.5c-1.6,0-2.9,0.6-3.9,1.7c-1.1,1.1-1.6,2.4-1.6,4V30.2z"/>
		<path class="st0" d="M24.8,34.2c-2.6,0-4.8-0.9-6.7-2.7c-1.9-1.8-2.8-4-2.8-6.6c0-2.6,0.9-4.8,2.8-6.7c1.9-1.8,4.1-2.8,6.7-2.8
			h5.6c0,1-0.4,1.9-1.1,2.6c-0.7,0.7-1.6,1.1-2.7,1.1h-1.8c-1.5,0-2.8,0.6-3.9,1.7c-1.1,1.1-1.6,2.5-1.6,4c0,1.5,0.5,2.9,1.6,4
			c1.1,1.1,2.4,1.7,3.9,1.7h1.8c1,0,1.9,0.4,2.7,1.1c0.7,0.7,1.1,1.6,1.1,2.6H24.8z M23.5,22.9h6.9c0,1-0.4,1.9-1.1,2.6
			c-0.7,0.7-1.6,1.1-2.7,1.1h-3.1c-0.5,0-1-0.2-1.3-0.5c-0.4-0.4-0.5-0.8-0.5-1.3c0-0.5,0.2-1,0.5-1.3
			C22.5,23.1,22.9,22.9,23.5,22.9z"/>
		<path class="st0" d="M35.5,34.2h-3.9V15.4c1.1,0,2,0.4,2.8,1.2c0.8,0.8,1.2,1.7,1.2,2.8v3.8h5.2c1.5,0,2.8-0.6,3.9-1.7
			c1.1-1.1,1.6-2.5,1.6-4v-1.8h3.9v1.8c0,1.5-0.3,2.9-1,4.2c-0.7,1.3-1.6,2.4-2.8,3.3c1.2,0.9,2.1,2,2.8,3.3c0.7,1.3,1,2.7,1,4.2
			v1.6h-3.9v-1.6c0-1.5-0.5-2.9-1.6-4c-1.1-1.1-2.4-1.7-3.9-1.7h-5.2V34.2z"/>
		<path class="st0" d="M56,24.8c0,1.6,0.5,2.9,1.6,4c1.1,1.1,2.4,1.7,3.9,1.7h1.8c1,0,1.9,0.4,2.6,1.1c0.7,0.7,1.1,1.6,1.1,2.6h-5.5
			c-2.6,0-4.8-0.9-6.7-2.7c-1.9-1.8-2.8-4-2.8-6.6v-9.4c1.1,0,2,0.4,2.8,1.2c0.8,0.8,1.2,1.7,1.2,2.8V24.8z"/>
		<path class="st0" d="M86.4,24.8v9.4h-9.5c-2.6,0-4.8-0.9-6.7-2.7c-1.9-1.8-2.8-4-2.8-6.6c0-2.6,0.9-4.8,2.8-6.7
			c1.9-1.8,4.1-2.8,6.7-2.8c2.6,0,4.8,0.9,6.7,2.8C85.5,20,86.4,22.2,86.4,24.8z M82.4,30.4v-5.6c0-1.6-0.5-2.9-1.6-4
			c-1.1-1.1-2.4-1.7-3.9-1.7c-1.6,0-2.9,0.6-3.9,1.7c-1.1,1.1-1.6,2.5-1.6,4c0,1.6,0.5,2.9,1.6,4c1.1,1.1,2.4,1.7,3.9,1.7H82.4z"/>
		<path class="st0" d="M107.2,24.8v9.4c-1.1,0-2-0.4-2.8-1.2c-0.8-0.8-1.2-1.7-1.2-2.8v-5.4c0-1.6-0.5-2.9-1.6-4
			c-1.1-1.1-2.4-1.7-3.9-1.7c-1.6,0-2.9,0.6-3.9,1.7c-1.1,1.1-1.6,2.5-1.6,4v5.4c0,1.1-0.4,2-1.2,2.8c-0.8,0.8-1.7,1.2-2.8,1.2v-9.4
			c0-2.6,0.9-4.8,2.8-6.7c1.9-1.8,4.1-2.8,6.7-2.8c1.5,0,2.9,0.3,4.2,1c1.3,0.6,2.4,1.6,3.4,2.7c0.9-1.1,2-2,3.3-2.7
			c1.3-0.7,2.7-1,4.2-1c2.6,0,4.9,0.9,6.7,2.8c1.9,1.8,2.8,4.1,2.8,6.7v9.4c-1.1,0-2-0.4-2.8-1.2c-0.8-0.8-1.2-1.7-1.2-2.8v-5.4
			c0-1.6-0.5-2.9-1.6-4c-1.1-1.1-2.4-1.7-3.9-1.7c-1.6,0-2.9,0.6-3.9,1.7C107.8,21.9,107.2,23.2,107.2,24.8z"/>
	</g>
	<path class="st1" d="M44.2,63.3c-3,0-5.6-1.1-7.7-3.2c-2.2-2.1-3.2-4.7-3.2-7.7c0-3,1.1-5.6,3.2-7.7c2.2-2.1,4.7-3.2,7.7-3.2
		c3,0,5.6,1.1,7.8,3.2c2.2,2.1,3.2,4.7,3.2,7.7v10.8H44.2z M49.6,52.5c0-1.5-0.5-2.8-1.6-3.9c-1-1.1-2.3-1.6-3.8-1.6
		c-1.5,0-2.8,0.5-3.8,1.6c-1,1.1-1.6,2.4-1.6,3.9c0,1.5,0.5,2.8,1.6,3.9c1,1.1,2.3,1.6,3.8,1.6h5.4V52.5z"/>
	<path class="st1" d="M68.3,63.3c-3,0-5.6-1.1-7.7-3.2c-2.1-2.1-3.2-4.7-3.2-7.7V36.5c1.8,0,3.1,0.5,4.1,1.5c1,1,1.5,2.1,1.5,3.5v11
		c0,1.5,0.5,2.8,1.6,3.9c1,1.1,2.3,1.6,3.8,1.6h2c1.3,0,2.4,0.5,3.3,1.4c0.9,0.9,1.4,2.2,1.4,4H68.3z M71.1,49.4
		c-0.9,0.9-2,1.4-3.3,1.4h-0.9c-0.7,0-1.4-0.3-1.9-0.8c-0.5-0.5-0.8-1.1-0.8-1.9c0-0.7,0.3-1.4,0.8-1.9c0.5-0.5,1.2-0.8,1.9-0.8h5.6
		C72.5,47.2,72,48.5,71.1,49.4z"/>
	<path class="st1" d="M86.8,63.3c-3,0-5.6-1.1-7.7-3.2c-2.1-2.1-3.2-4.7-3.2-7.7c0-3,1.1-5.6,3.2-7.7c2.1-2.1,4.7-3.2,7.7-3.2
		c3,0,5.6,1.1,7.7,3.2c2.2,2.1,3.2,4.7,3.2,7.7c0,3-1.1,5.5-3.2,7.7C92.4,62.3,89.8,63.3,86.8,63.3z M86.8,47
		c-1.5,0-2.8,0.5-3.8,1.6c-1,1.1-1.6,2.4-1.6,3.9c0,1.5,0.5,2.8,1.6,3.9c1,1.1,2.3,1.6,3.8,1.6c1.5,0,2.8-0.5,3.8-1.6
		c1.1-1.1,1.6-2.4,1.6-3.9c0-1.5-0.5-2.8-1.6-3.9C89.6,47.5,88.3,47,86.8,47z"/>
	<path class="st1" d="M110.5,63.3c-3,0-5.6-1.1-7.7-3.2c-2.2-2.1-3.2-4.7-3.2-7.7V36.5c1.8,0,3.1,0.5,4.1,1.5c1,1,1.5,2.1,1.5,3.5
		v11c0,1.5,0.5,2.8,1.6,3.9c1.1,1.1,2.3,1.6,3.8,1.6h2c1.3,0,2.4,0.5,3.3,1.4c0.9,0.9,1.4,2.2,1.4,4H110.5z"/>
	<path class="st1" d="M133.3,67c-1-1-1.5-2.1-1.5-3.5v-0.2h-5.4c-3,0-5.6-1-7.8-3.1c-2.2-2.1-3.2-4.7-3.2-7.7V41.6
		c1.8,0,3.1,0.5,4.1,1.5c1,1,1.5,2.1,1.5,3.5v5.9c0,1.5,0.5,2.8,1.6,3.9c1.1,1.1,2.3,1.6,3.8,1.6h5.4V46.5c0-1.3,0.5-2.5,1.5-3.5
		c1-1,2.3-1.5,4.1-1.5v26.8C135.6,68.4,134.2,67.9,133.3,67z"/>
	<path class="st1" d="M150.4,63.3c-3,0-5.6-1.1-7.7-3.2c-2.1-2.1-3.2-4.7-3.2-7.7c0-3,1.1-5.6,3.2-7.7c2.1-2.1,4.7-3.2,7.7-3.2h6.7
		c0,1.7-0.5,3-1.4,4c-0.9,0.9-2,1.4-3.3,1.4h-2c-1.5,0-2.8,0.5-3.8,1.6c-1,1.1-1.6,2.4-1.6,3.9c0,1.5,0.5,2.8,1.6,3.9
		c1,1.1,2.3,1.6,3.8,1.6h2c1.3,0,2.4,0.5,3.3,1.4c0.9,0.9,1.4,2.2,1.4,4H150.4z M155.7,53.7c-0.9,0.9-2,1.4-3.3,1.4H149
		c-0.7,0-1.4-0.3-1.9-0.8c-0.5-0.5-0.8-1.1-0.8-1.9c0-0.8,0.3-1.4,0.8-1.9c0.5-0.5,1.1-0.8,1.9-0.8h8.1
		C157.1,51.5,156.6,52.8,155.7,53.7z"/>
	<path class="st1" d="M182.4,45.6c-0.9,0.9-2,1.4-3.4,1.4h-0.9c-1.1,0-2.1,0.4-2.9,1.2c-0.8,0.8-1.2,1.8-1.2,2.9v3.5
		c0,2.4-0.9,4.4-2.6,6.1c-1.7,1.7-3.8,2.5-6.2,2.5h-6.5c0-1.7,0.5-3,1.4-4c0.9-0.9,2-1.4,3.3-1.4h0.9c1.2,0,2.1-0.4,2.9-1.2
		c0.8-0.8,1.2-1.8,1.2-3v-3.5c0-2.4,0.9-4.4,2.6-6.1c1.7-1.7,3.8-2.5,6.2-2.5h6.5C183.8,43.3,183.3,44.7,182.4,45.6z"/>
	<g>
		<path class="st2" d="M189.9,5.2c0.5,0,0.9,0.2,1.2,0.5c0.3,0.3,0.5,0.7,0.5,1.2c0,0.5-0.2,0.9-0.5,1.2c-0.3,0.3-0.7,0.5-1.2,0.5
			c-0.5,0-0.9-0.2-1.2-0.5c-0.3-0.3-0.5-0.7-0.5-1.2c0-0.5,0.2-0.9,0.5-1.2C189,5.4,189.4,5.2,189.9,5.2z M189.9,5.9
			c-0.3,0-0.5,0.1-0.7,0.3c-0.2,0.2-0.3,0.4-0.3,0.7c0,0.3,0.1,0.5,0.3,0.7c0.2,0.2,0.4,0.3,0.7,0.3c0.3,0,0.5-0.1,0.7-0.3
			c0.2-0.2,0.3-0.4,0.3-0.7c0-0.3-0.1-0.5-0.3-0.7C190.4,6,190.1,5.9,189.9,5.9z"/>
		<path class="st2" d="M192.5,7.9c0,0.2-0.1,0.4-0.2,0.5c-0.1,0.1-0.3,0.2-0.5,0.2V6.9c0-0.5,0.2-0.9,0.5-1.2
			c0.3-0.3,0.7-0.5,1.2-0.5h1c0,0.2-0.1,0.3-0.2,0.5c-0.1,0.1-0.3,0.2-0.5,0.2h-0.3c-0.3,0-0.5,0.1-0.7,0.3
			c-0.2,0.2-0.3,0.4-0.3,0.7V7.9z"/>
		<path class="st2" d="M197.5,8.7c0,0.5-0.2,0.9-0.5,1.2c-0.3,0.3-0.7,0.5-1.2,0.5h-1c0-0.2,0.1-0.3,0.2-0.5
			c0.1-0.1,0.3-0.2,0.5-0.2h0.3c0.3,0,0.5-0.1,0.7-0.3c0.2-0.2,0.3-0.4,0.3-0.7V8.6h-1c-0.5,0-0.9-0.2-1.2-0.5
			c-0.3-0.3-0.5-0.7-0.5-1.2c0-0.5,0.2-0.9,0.5-1.2c0.3-0.3,0.7-0.5,1.2-0.5c0.5,0,0.9,0.2,1.2,0.5c0.3,0.3,0.5,0.7,0.5,1.2V8.7z
			 M196.8,7.9v-1c0-0.3-0.1-0.5-0.3-0.7c-0.2-0.2-0.4-0.3-0.7-0.3c-0.3,0-0.5,0.1-0.7,0.3c-0.2,0.2-0.3,0.4-0.3,0.7
			c0,0.3,0.1,0.5,0.3,0.7c0.2,0.2,0.4,0.3,0.7,0.3H196.8z"/>
	</g>
</g>
</svg>
